<?xml version="1.0" standalone="no"?><!DOCTYPE svg PUBLIC "-//W3C//DTD SVG 1.1//EN" "http://www.w3.org/Graphics/SVG/1.1/DTD/svg11.dtd"><svg width="100%" height="100%" viewBox="0 0 456 55" version="1.1" xmlns="http://www.w3.org/2000/svg" xmlns:xlink="http://www.w3.org/1999/xlink" xml:space="preserve" style="fill-rule:evenodd;clip-rule:evenodd;stroke-linejoin:round;stroke-miterlimit:1.41421;"><g transform="matrix(1,0,0,1,-27.6498,-28.459)"><text x="319.57px" y="45.551px" style="font-family:'Gotham-Light';font-size:24px;fill:#cbcbcb;">BUI</text><text x="361.714px" y="45.551px" style="font-family:'Gotham-Light';font-size:24px;fill:#cbcbcb;">L</text><text x="374.17px" y="45.551px" style="font-family:'Gotham-Light';font-size:24px;fill:#cbcbcb;">T WITH</text></g><path d="M91.725,49.529c0,2.666 -2.161,4.826 -4.826,4.826c-2.665,0 -4.825,-2.16 -4.825,-4.826c0,-2.664 2.16,-4.826 4.825,-4.826c2.665,0 4.826,2.162 4.826,4.826" style="fill:#6193c0;fill-rule:nonzero;"/><clipPath id="_clip1"><rect x="-0.002" y="0" width="215.441" height="54.296"/></clipPath><g clip-path="url(#_clip1)"><path d="M115.997,49.529c0,2.666 -2.161,4.826 -4.825,4.826c-2.666,0 -4.826,-2.16 -4.826,-4.826c0,-2.664 2.16,-4.826 4.826,-4.826c2.664,0 4.825,2.162 4.825,4.826" style="fill:#6193c0;fill-rule:nonzero;"/></g><clipPath id="_clip2"><rect x="-0.002" y="0" width="215.441" height="54.296"/></clipPath><g clip-path="url(#_clip2)"><path d="M140.268,49.529c0,2.666 -2.161,4.827 -4.826,4.827c-2.664,0 -4.825,-2.161 -4.825,-4.827c0,-2.665 2.161,-4.826 4.825,-4.826c2.665,0 4.826,2.161 4.826,4.826" style="fill:#6193c0;fill-rule:nonzero;"/></g><path d="M28.017,16.913l0,-0.094c0,-6.318 -4.6,-11.569 -11.058,-11.569c-6.459,0 -10.965,5.158 -10.965,11.477l0,0.092c0,6.32 4.599,11.523 11.057,11.523c6.459,0 10.966,-5.111 10.966,-11.429ZM0,16.913l0,-0.094c0,-9.152 7.062,-16.819 17.051,-16.819c9.99,0 16.959,7.574 16.959,16.727l0,0.092c0,9.154 -7.062,16.82 -17.051,16.82c-9.99,0 -16.959,-7.574 -16.959,-16.726" style="fill:#cbcbcb;fill-rule:nonzero;"/><path d="M56.776,17.47c4.321,0 7.016,-2.416 7.016,-5.808l0,-0.093c0,-3.81 -2.741,-5.807 -7.016,-5.807l-6.644,0l0,11.708l6.644,0ZM44.417,0.558l12.824,0c7.619,0 12.359,4.321 12.359,10.872l0,0.093c0,7.294 -5.854,11.104 -13.01,11.104l-6.458,0l0,10.455l-5.715,0l0,-32.524" style="fill:#cbcbcb;fill-rule:nonzero;"/><path d="M78.427,19.282l0,-18.724l5.714,0l0,18.492c0,6.04 3.113,9.246 8.224,9.246c5.065,0 8.177,-3.021 8.177,-9.014l0,-18.724l5.715,0l0,18.445c0,9.711 -5.483,14.59 -13.985,14.59c-8.456,0 -13.845,-4.879 -13.845,-14.311" style="fill:#cbcbcb;fill-rule:nonzero;"/><path d="M115.409,28.342l3.439,-4.089c3.112,2.695 6.272,4.228 10.268,4.228c3.531,0 5.761,-1.672 5.761,-4.088l0,-0.093c0,-2.323 -1.301,-3.578 -7.341,-4.972c-6.923,-1.672 -10.826,-3.716 -10.826,-9.71l0,-0.093c0,-5.576 4.646,-9.432 11.105,-9.432c4.739,0 8.502,1.44 11.801,4.089l-3.066,4.32c-2.927,-2.183 -5.854,-3.344 -8.828,-3.344c-3.346,0 -5.297,1.718 -5.297,3.856l0,0.093c0,2.509 1.487,3.624 7.76,5.111c6.876,1.672 10.407,4.135 10.407,9.525l0,0.092c0,6.087 -4.785,9.711 -11.615,9.711c-4.972,0 -9.665,-1.719 -13.568,-5.204" style="fill:#cbcbcb;fill-rule:nonzero;"/><path d="M151.51,0.558l6.319,0l9.803,24.997l9.757,-24.997l6.18,0l-13.474,32.756l-5.065,0l-13.52,-32.756" style="fill:#6193c0;fill-rule:nonzero;"/><path d="M192.629,0.558l5.711,0l0,27.319l17.097,0l0,5.205l-22.808,0l0,-32.524" style="fill:#6193c0;fill-rule:nonzero;"/><path d="M364.616,33.718c0,1.54 -1.248,2.788 -2.788,2.788c-1.539,0 -2.787,-1.248 -2.787,-2.788c0,-1.539 1.248,-2.788 2.787,-2.788c1.54,0 2.788,1.249 2.788,2.788" style="fill:#6193c0;fill-rule:nonzero;"/><path d="M274.068,54.33l3.936,0l0,-9.12l11.296,0l0,-3.584l-11.296,0l0,-6.112l12.736,0l0,-3.584l-16.672,0l0,22.4Z" style="fill:#cbcbcb;fill-rule:nonzero;"/><path d="M295.06,54.33l15.712,0l0,-3.584l-11.776,0l0,-18.816l-3.936,0l0,22.4Z" style="fill:#cbcbcb;fill-rule:nonzero;"/><path d="M314.868,54.33l16.768,0l0,-3.52l-12.832,0l0,-6.016l11.232,0l0,-3.52l-11.232,0l0,-5.824l12.672,0l0,-3.52l-16.608,0l0,22.4Z" style="fill:#cbcbcb;fill-rule:nonzero;"/><path d="M350.74,31.93l-5.6,8.128l-5.568,-8.128l-4.64,0l7.776,11.008l-8.096,11.392l4.512,0l5.888,-8.544l5.92,8.544l4.64,0l-8.128,-11.456l7.808,-10.944l-4.512,0Z" style="fill:#cbcbcb;fill-rule:nonzero;"/><rect x="359.86" y="38.9" width="3.936" height="15.43" style="fill:#cbcbcb;fill-rule:nonzero;"/><path d="M369.78,54.33l10.368,0c4.992,0 8.288,-2.144 8.288,-6.144l0,-0.064c0,-3.04 -1.824,-4.544 -4.448,-5.44c1.664,-0.864 3.2,-2.304 3.2,-4.992l0,-0.064c0,-1.504 -0.512,-2.72 -1.504,-3.712c-1.28,-1.28 -3.296,-1.984 -5.856,-1.984l-10.048,0l0,22.4ZM383.252,38.33c0,2.048 -1.696,3.04 -4.224,3.04l-5.376,0l0,-5.952l5.664,0c2.528,0 3.936,1.088 3.936,2.848l0,0.064ZM384.5,47.706l0,0.064c0,2.016 -1.632,3.072 -4.32,3.072l-6.528,0l0,-6.144l6.24,0c3.104,0 4.608,1.12 4.608,3.008Z" style="fill:#cbcbcb;fill-rule:nonzero;"/><path d="M390.964,54.33l4.032,0l2.304,-5.408l10.592,0l2.272,5.408l4.16,0l-9.856,-22.56l-3.648,0l-9.856,22.56ZM398.74,45.434l3.84,-8.96l3.872,8.96l-7.712,0Z" style="fill:#cbcbcb;fill-rule:nonzero;"/><path d="M425.62,54.65c4.704,0 8,-2.496 8,-6.688l0,-0.064c0,-3.712 -2.432,-5.408 -7.168,-6.56c-4.32,-1.024 -5.344,-1.792 -5.344,-3.52l0,-0.064c0,-1.472 1.344,-2.656 3.648,-2.656c2.048,0 4.064,0.8 6.08,2.304l2.112,-2.976c-2.272,-1.824 -4.864,-2.816 -8.128,-2.816c-4.448,0 -7.648,2.656 -7.648,6.496l0,0.064c0,4.128 2.688,5.536 7.456,6.688c4.16,0.96 5.056,1.824 5.056,3.424l0,0.064c0,1.664 -1.536,2.816 -3.968,2.816c-2.752,0 -4.928,-1.056 -7.072,-2.912l-2.368,2.816c2.688,2.4 5.92,3.584 9.344,3.584Z" style="fill:#cbcbcb;fill-rule:nonzero;"/><path d="M438.26,54.33l16.768,0l0,-3.52l-12.832,0l0,-6.016l11.232,0l0,-3.52l-11.232,0l0,-5.824l12.672,0l0,-3.52l-16.608,0l0,22.4Z" style="fill:#cbcbcb;fill-rule:nonzero;"/></svg>